<svg id="visual" viewBox="0 0 900 600" width="900" height="600" xmlns="http://www.w3.org/2000/svg" xmlns:xlink="http://www.w3.org/1999/xlink" version="1.1"><g stroke-width="1" stroke-linejoin="bevel"><path d="M445 302L380 303L440 369Z" fill="#235a7c" stroke="#235a7c"></path><path d="M380 303L365 367L440 369Z" fill="#133e5d" stroke="#133e5d"></path><path d="M440 369L519 308L445 302Z" fill="#0e3653" stroke="#0e3653"></path><path d="M292 294L305 375L365 367Z" fill="#33779b" stroke="#33779b"></path><path d="M381 455L458 444L440 369Z" fill="#2e6d91" stroke="#2e6d91"></path><path d="M454 218L372 224L445 302Z" fill="#0e3653" stroke="#0e3653"></path><path d="M445 302L372 224L380 303Z" fill="#33779b" stroke="#33779b"></path><path d="M380 303L292 294L365 367Z" fill="#194767" stroke="#194767"></path><path d="M458 444L525 369L440 369Z" fill="#194767" stroke="#194767"></path><path d="M440 369L525 369L519 308Z" fill="#0e3653" stroke="#0e3653"></path><path d="M381 455L440 369L365 367Z" fill="#194767" stroke="#194767"></path><path d="M517 224L454 218L445 302Z" fill="#235a7c" stroke="#235a7c"></path><path d="M300 449L381 455L365 367Z" fill="#1e5172" stroke="#1e5172"></path><path d="M372 224L292 294L380 303Z" fill="#2e6d91" stroke="#2e6d91"></path><path d="M596 290L517 224L519 308Z" fill="#194767" stroke="#194767"></path><path d="M519 308L517 224L445 302Z" fill="#2e6d91" stroke="#2e6d91"></path><path d="M215 381L300 449L305 375Z" fill="#286486" stroke="#286486"></path><path d="M305 375L300 449L365 367Z" fill="#3e8cb0" stroke="#3e8cb0"></path><path d="M296 144L290 228L372 224Z" fill="#235a7c" stroke="#235a7c"></path><path d="M372 224L290 228L292 294Z" fill="#082d49" stroke="#082d49"></path><path d="M458 444L532 453L525 369Z" fill="#082d49" stroke="#082d49"></path><path d="M525 369L593 379L519 308Z" fill="#235a7c" stroke="#235a7c"></path><path d="M522 516L532 453L458 444Z" fill="#235a7c" stroke="#235a7c"></path><path d="M228 229L232 302L292 294Z" fill="#194767" stroke="#194767"></path><path d="M292 294L232 302L305 375Z" fill="#1e5172" stroke="#1e5172"></path><path d="M532 453L593 379L525 369Z" fill="#33779b" stroke="#33779b"></path><path d="M520 154L441 148L454 218Z" fill="#0e3653" stroke="#0e3653"></path><path d="M454 218L441 148L372 224Z" fill="#235a7c" stroke="#235a7c"></path><path d="M593 379L596 290L519 308Z" fill="#2e6d91" stroke="#2e6d91"></path><path d="M517 224L520 154L454 218Z" fill="#33779b" stroke="#33779b"></path><path d="M300 449L381 519L381 455Z" fill="#235a7c" stroke="#235a7c"></path><path d="M381 455L455 532L458 444Z" fill="#133e5d" stroke="#133e5d"></path><path d="M441 148L375 140L372 224Z" fill="#133e5d" stroke="#133e5d"></path><path d="M381 519L455 532L381 455Z" fill="#1e5172" stroke="#1e5172"></path><path d="M232 302L215 381L305 375Z" fill="#0e3653" stroke="#0e3653"></path><path d="M300 449L300 533L381 519Z" fill="#2e6d91" stroke="#2e6d91"></path><path d="M609 225L520 154L517 224Z" fill="#235a7c" stroke="#235a7c"></path><path d="M441 148L374 70L375 140Z" fill="#235a7c" stroke="#235a7c"></path><path d="M290 228L228 229L292 294Z" fill="#286486" stroke="#286486"></path><path d="M232 302L144 368L215 381Z" fill="#3e8cb0" stroke="#3e8cb0"></path><path d="M229 146L228 229L290 228Z" fill="#082d49" stroke="#082d49"></path><path d="M455 532L522 516L458 444Z" fill="#3882a6" stroke="#3882a6"></path><path d="M532 453L606 449L593 379Z" fill="#2e6d91" stroke="#2e6d91"></path><path d="M215 381L233 456L300 449Z" fill="#0e3653" stroke="#0e3653"></path><path d="M375 140L296 144L372 224Z" fill="#33779b" stroke="#33779b"></path><path d="M667 305L609 225L596 290Z" fill="#0e3653" stroke="#0e3653"></path><path d="M596 290L609 225L517 224Z" fill="#194767" stroke="#194767"></path><path d="M604 526L606 449L532 453Z" fill="#3882a6" stroke="#3882a6"></path><path d="M593 379L667 305L596 290Z" fill="#33779b" stroke="#33779b"></path><path d="M233 456L300 533L300 449Z" fill="#3e8cb0" stroke="#3e8cb0"></path><path d="M381 519L441 600L455 532Z" fill="#33779b" stroke="#33779b"></path><path d="M676 380L667 305L593 379Z" fill="#3882a6" stroke="#3882a6"></path><path d="M305 79L229 146L296 144Z" fill="#3882a6" stroke="#3882a6"></path><path d="M296 144L229 146L290 228Z" fill="#33779b" stroke="#33779b"></path><path d="M228 229L146 292L232 302Z" fill="#3e8cb0" stroke="#3e8cb0"></path><path d="M669 145L592 141L609 225Z" fill="#33779b" stroke="#33779b"></path><path d="M609 225L592 141L520 154Z" fill="#0e3653" stroke="#0e3653"></path><path d="M450 66L374 70L441 148Z" fill="#133e5d" stroke="#133e5d"></path><path d="M143 442L227 519L233 456Z" fill="#235a7c" stroke="#235a7c"></path><path d="M233 456L227 519L300 533Z" fill="#194767" stroke="#194767"></path><path d="M450 66L441 148L520 84Z" fill="#194767" stroke="#194767"></path><path d="M375 140L305 79L296 144Z" fill="#1e5172" stroke="#1e5172"></path><path d="M606 449L676 380L593 379Z" fill="#2e6d91" stroke="#2e6d91"></path><path d="M455 532L527 600L522 516Z" fill="#3882a6" stroke="#3882a6"></path><path d="M522 516L604 526L532 453Z" fill="#133e5d" stroke="#133e5d"></path><path d="M365 600L441 600L381 519Z" fill="#286486" stroke="#286486"></path><path d="M365 600L381 519L300 533Z" fill="#3e8cb0" stroke="#3e8cb0"></path><path d="M520 84L441 148L520 154Z" fill="#133e5d" stroke="#133e5d"></path><path d="M151 222L146 292L228 229Z" fill="#286486" stroke="#286486"></path><path d="M215 381L143 442L233 456Z" fill="#3e8cb0" stroke="#3e8cb0"></path><path d="M301 600L365 600L300 533Z" fill="#194767" stroke="#194767"></path><path d="M146 292L144 368L232 302Z" fill="#1e5172" stroke="#1e5172"></path><path d="M592 141L520 84L520 154Z" fill="#2e6d91" stroke="#2e6d91"></path><path d="M527 600L604 526L522 516Z" fill="#194767" stroke="#194767"></path><path d="M606 449L677 441L676 380Z" fill="#082d49" stroke="#082d49"></path><path d="M374 70L305 79L375 140Z" fill="#133e5d" stroke="#133e5d"></path><path d="M667 305L675 228L609 225Z" fill="#3e8cb0" stroke="#3e8cb0"></path><path d="M754 300L675 228L667 305Z" fill="#33779b" stroke="#33779b"></path><path d="M229 146L151 222L228 229Z" fill="#33779b" stroke="#33779b"></path><path d="M667 516L677 441L606 449Z" fill="#3e8cb0" stroke="#3e8cb0"></path><path d="M676 380L754 300L667 305Z" fill="#0e3653" stroke="#0e3653"></path><path d="M232 600L301 600L300 533Z" fill="#2e6d91" stroke="#2e6d91"></path><path d="M441 600L527 600L455 532Z" fill="#082d49" stroke="#082d49"></path><path d="M144 368L143 442L215 381Z" fill="#2e6d91" stroke="#2e6d91"></path><path d="M227 519L232 600L300 533Z" fill="#1e5172" stroke="#1e5172"></path><path d="M671 600L667 516L604 526Z" fill="#3e8cb0" stroke="#3e8cb0"></path><path d="M604 526L667 516L606 449Z" fill="#0e3653" stroke="#0e3653"></path><path d="M592 141L599 79L520 84Z" fill="#235a7c" stroke="#235a7c"></path><path d="M528 0L452 0L450 66Z" fill="#133e5d" stroke="#133e5d"></path><path d="M669 145L599 79L592 141Z" fill="#3e8cb0" stroke="#3e8cb0"></path><path d="M675 228L669 145L609 225Z" fill="#286486" stroke="#286486"></path><path d="M305 79L215 83L229 146Z" fill="#194767" stroke="#194767"></path><path d="M229 146L157 142L151 222Z" fill="#133e5d" stroke="#133e5d"></path><path d="M290 0L215 83L305 79Z" fill="#194767" stroke="#194767"></path><path d="M215 83L157 142L229 146Z" fill="#235a7c" stroke="#235a7c"></path><path d="M153 532L232 600L227 519Z" fill="#0e3653" stroke="#0e3653"></path><path d="M143 442L153 532L227 519Z" fill="#3e8cb0" stroke="#3e8cb0"></path><path d="M527 600L603 600L604 526Z" fill="#286486" stroke="#286486"></path><path d="M528 0L450 66L520 84Z" fill="#133e5d" stroke="#133e5d"></path><path d="M450 66L452 0L374 70Z" fill="#3e8cb0" stroke="#3e8cb0"></path><path d="M374 70L365 0L305 79Z" fill="#133e5d" stroke="#133e5d"></path><path d="M452 0L365 0L374 70Z" fill="#33779b" stroke="#33779b"></path><path d="M755 379L676 380L748 441Z" fill="#2e6d91" stroke="#2e6d91"></path><path d="M755 379L754 300L676 380Z" fill="#194767" stroke="#194767"></path><path d="M675 228L748 215L669 145Z" fill="#286486" stroke="#286486"></path><path d="M144 368L70 371L143 442Z" fill="#1e5172" stroke="#1e5172"></path><path d="M143 442L79 447L153 532Z" fill="#0e3653" stroke="#0e3653"></path><path d="M67 299L70 371L144 368Z" fill="#2e6d91" stroke="#2e6d91"></path><path d="M67 299L144 368L146 292Z" fill="#1e5172" stroke="#1e5172"></path><path d="M67 299L146 292L80 225Z" fill="#3e8cb0" stroke="#3e8cb0"></path><path d="M748 441L676 380L677 441Z" fill="#082d49" stroke="#082d49"></path><path d="M80 225L146 292L151 222Z" fill="#3882a6" stroke="#3882a6"></path><path d="M78 152L80 225L151 222Z" fill="#2e6d91" stroke="#2e6d91"></path><path d="M755 528L748 441L667 516Z" fill="#194767" stroke="#194767"></path><path d="M667 516L748 441L677 441Z" fill="#3882a6" stroke="#3882a6"></path><path d="M599 79L528 0L520 84Z" fill="#3e8cb0" stroke="#3e8cb0"></path><path d="M594 0L528 0L599 79Z" fill="#3e8cb0" stroke="#3e8cb0"></path><path d="M70 371L79 447L143 442Z" fill="#2e6d91" stroke="#2e6d91"></path><path d="M365 0L290 0L305 79Z" fill="#2e6d91" stroke="#2e6d91"></path><path d="M215 83L151 71L157 142Z" fill="#286486" stroke="#286486"></path><path d="M754 300L748 215L675 228Z" fill="#3882a6" stroke="#3882a6"></path><path d="M669 145L672 78L599 79Z" fill="#082d49" stroke="#082d49"></path><path d="M750 143L672 78L669 145Z" fill="#286486" stroke="#286486"></path><path d="M216 0L151 71L215 83Z" fill="#235a7c" stroke="#235a7c"></path><path d="M157 142L78 152L151 222Z" fill="#3882a6" stroke="#3882a6"></path><path d="M603 600L671 600L604 526Z" fill="#33779b" stroke="#33779b"></path><path d="M74 531L153 600L153 532Z" fill="#235a7c" stroke="#235a7c"></path><path d="M153 532L153 600L232 600Z" fill="#235a7c" stroke="#235a7c"></path><path d="M672 78L594 0L599 79Z" fill="#194767" stroke="#194767"></path><path d="M77 72L78 152L157 142Z" fill="#3e8cb0" stroke="#3e8cb0"></path><path d="M0 215L0 297L67 299Z" fill="#2e6d91" stroke="#2e6d91"></path><path d="M748 215L750 143L669 145Z" fill="#194767" stroke="#194767"></path><path d="M672 78L681 0L594 0Z" fill="#286486" stroke="#286486"></path><path d="M823 141L750 143L748 215Z" fill="#286486" stroke="#286486"></path><path d="M290 0L216 0L215 83Z" fill="#0e3653" stroke="#0e3653"></path><path d="M79 447L74 531L153 532Z" fill="#3e8cb0" stroke="#3e8cb0"></path><path d="M0 522L74 531L79 447Z" fill="#3882a6" stroke="#3882a6"></path><path d="M0 383L79 447L70 371Z" fill="#235a7c" stroke="#235a7c"></path><path d="M671 600L755 528L667 516Z" fill="#133e5d" stroke="#133e5d"></path><path d="M828 382L827 303L755 379Z" fill="#286486" stroke="#286486"></path><path d="M0 215L67 299L80 225Z" fill="#235a7c" stroke="#235a7c"></path><path d="M67 299L0 297L70 371Z" fill="#2e6d91" stroke="#2e6d91"></path><path d="M755 379L827 303L754 300Z" fill="#082d49" stroke="#082d49"></path><path d="M754 300L829 230L748 215Z" fill="#286486" stroke="#286486"></path><path d="M828 382L755 379L823 443Z" fill="#0e3653" stroke="#0e3653"></path><path d="M0 297L0 383L70 371Z" fill="#286486" stroke="#286486"></path><path d="M823 443L755 379L748 441Z" fill="#3882a6" stroke="#3882a6"></path><path d="M755 528L823 443L748 441Z" fill="#2e6d91" stroke="#2e6d91"></path><path d="M148 0L77 72L151 71Z" fill="#3e8cb0" stroke="#3e8cb0"></path><path d="M151 71L77 72L157 142Z" fill="#082d49" stroke="#082d49"></path><path d="M78 152L0 215L80 225Z" fill="#082d49" stroke="#082d49"></path><path d="M216 0L148 0L151 71Z" fill="#286486" stroke="#286486"></path><path d="M0 383L0 443L79 447Z" fill="#3882a6" stroke="#3882a6"></path><path d="M756 66L681 0L672 78Z" fill="#33779b" stroke="#33779b"></path><path d="M671 600L748 600L755 528Z" fill="#133e5d" stroke="#133e5d"></path><path d="M755 528L824 531L823 443Z" fill="#3882a6" stroke="#3882a6"></path><path d="M827 303L829 230L754 300Z" fill="#33779b" stroke="#33779b"></path><path d="M750 143L756 66L672 78Z" fill="#286486" stroke="#286486"></path><path d="M900 294L829 230L827 303Z" fill="#3882a6" stroke="#3882a6"></path><path d="M0 140L0 215L78 152Z" fill="#33779b" stroke="#33779b"></path><path d="M823 141L756 66L750 143Z" fill="#1e5172" stroke="#1e5172"></path><path d="M0 600L67 600L74 531Z" fill="#2e6d91" stroke="#2e6d91"></path><path d="M74 531L67 600L153 600Z" fill="#286486" stroke="#286486"></path><path d="M829 230L823 141L748 215Z" fill="#194767" stroke="#194767"></path><path d="M0 443L0 522L79 447Z" fill="#3882a6" stroke="#3882a6"></path><path d="M77 72L0 140L78 152Z" fill="#194767" stroke="#194767"></path><path d="M0 66L0 140L77 72Z" fill="#2e6d91" stroke="#2e6d91"></path><path d="M827 600L824 531L755 528Z" fill="#33779b" stroke="#33779b"></path><path d="M900 459L900 372L828 382Z" fill="#0e3653" stroke="#0e3653"></path><path d="M817 0L743 0L756 66Z" fill="#2e6d91" stroke="#2e6d91"></path><path d="M756 66L743 0L681 0Z" fill="#1e5172" stroke="#1e5172"></path><path d="M148 0L73 0L77 72Z" fill="#3882a6" stroke="#3882a6"></path><path d="M900 80L826 74L823 141Z" fill="#3e8cb0" stroke="#3e8cb0"></path><path d="M823 141L826 74L756 66Z" fill="#3e8cb0" stroke="#3e8cb0"></path><path d="M900 459L828 382L823 443Z" fill="#194767" stroke="#194767"></path><path d="M828 382L900 372L827 303Z" fill="#0e3653" stroke="#0e3653"></path><path d="M829 230L900 149L823 141Z" fill="#286486" stroke="#286486"></path><path d="M900 372L900 294L827 303Z" fill="#082d49" stroke="#082d49"></path><path d="M0 522L0 600L74 531Z" fill="#133e5d" stroke="#133e5d"></path><path d="M73 0L0 66L77 72Z" fill="#3e8cb0" stroke="#3e8cb0"></path><path d="M748 600L827 600L755 528Z" fill="#33779b" stroke="#33779b"></path><path d="M824 531L900 459L823 443Z" fill="#3e8cb0" stroke="#3e8cb0"></path><path d="M900 294L900 233L829 230Z" fill="#235a7c" stroke="#235a7c"></path><path d="M900 530L900 459L824 531Z" fill="#2e6d91" stroke="#2e6d91"></path><path d="M900 233L900 149L829 230Z" fill="#33779b" stroke="#33779b"></path><path d="M900 0L817 0L826 74Z" fill="#2e6d91" stroke="#2e6d91"></path><path d="M826 74L817 0L756 66Z" fill="#0e3653" stroke="#0e3653"></path><path d="M827 600L900 530L824 531Z" fill="#3e8cb0" stroke="#3e8cb0"></path><path d="M73 0L0 0L0 66Z" fill="#235a7c" stroke="#235a7c"></path><path d="M900 149L900 80L823 141Z" fill="#082d49" stroke="#082d49"></path><path d="M827 600L900 600L900 530Z" fill="#082d49" stroke="#082d49"></path><path d="M900 80L900 0L826 74Z" fill="#0e3653" stroke="#0e3653"></path></g></svg>